<?xml version="1.0" encoding="UTF-8" standalone="no"?>
<svg
   xmlns:dc="http://purl.org/dc/elements/1.1/"
   xmlns:cc="http://creativecommons.org/ns#"
   xmlns:rdf="http://www.w3.org/1999/02/22-rdf-syntax-ns#"
   xmlns:svg="http://www.w3.org/2000/svg"
   xmlns="http://www.w3.org/2000/svg"
   xmlns:sodipodi="http://sodipodi.sourceforge.net/DTD/sodipodi-0.dtd"
   xmlns:inkscape="http://www.inkscape.org/namespaces/inkscape"
   version="1.1"
   x="0px"
   y="0px"
   viewBox="0 0 130 130"
   xml:space="preserve"
   id="svg8"
   sodipodi:docname="fireplace_off.svg"
   width="130"
   height="130"
   inkscape:version="0.92.3 (2405546, 2018-03-11)"><metadata
     id="metadata14"><rdf:RDF><cc:Work
         rdf:about=""><dc:format>image/svg+xml</dc:format><dc:type
           rdf:resource="http://purl.org/dc/dcmitype/StillImage" /><dc:title></dc:title></cc:Work></rdf:RDF></metadata><defs
     id="defs12" /><sodipodi:namedview
     pagecolor="#ffffff"
     bordercolor="#666666"
     borderopacity="1"
     objecttolerance="10"
     gridtolerance="10"
     guidetolerance="10"
     inkscape:pageopacity="0"
     inkscape:pageshadow="2"
     inkscape:window-width="1920"
     inkscape:window-height="1017"
     id="namedview10"
     showgrid="false"
     inkscape:zoom="5.7558492"
     inkscape:cx="57.776531"
     inkscape:cy="63.022975"
     inkscape:window-x="-8"
     inkscape:window-y="317"
     inkscape:window-maximized="1"
     inkscape:current-layer="layer2" /><g
     inkscape:groupmode="layer"
     id="layer1"
     inkscape:label="Background"
     style="display:inline"
     transform="translate(0,58.455002)"><circle
       style="display:inline;fill:#e1e2e1;fill-opacity:1;stroke:#f5f5f6;stroke-width:7.18289375;stroke-linecap:butt;stroke-linejoin:round;stroke-miterlimit:4;stroke-dasharray:none;stroke-dashoffset:0;stroke-opacity:1"
       id="path998"
       cx="65"
       cy="6.5449972"
       r="61.408554" /></g><g
     inkscape:groupmode="layer"
     id="layer2"
     inkscape:label="Icon"
     style="display:inline"
     transform="translate(0,58.455002)"><path
       d="m 84.773798,-3.942463 c -0.35263,-0.625921 -0.71727,-0.928337 -1.04682,-0.928337 -0.39551,0 -0.74019,0.434955 -0.95275,1.268229 -0.69658,2.728053 -2.04997,6.133429 -4.13433,6.133429 -0.21045,0 -0.42812,-0.03502 -0.6537,-0.108493 -4.84702,-1.583367 -3.47409,-9.176695 -3.67906,-12.9034 -0.52664,-9.550615 -3.74325,-20.339858 -10.757029,-27.355286 -0.42062,-0.420892 -0.77528,-0.618681 -1.0547,-0.618681 -0.46554,0 -0.72169,0.549984 -0.72612,1.534641 -0.0175,3.841804 -1.5786,11.868679 -10.7169,25.607462 C 42.0768,2.181335 33.08482,19.724162 40.07253,36.041588 c 4.273339,9.97903 14.407269,15.50341 24.538809,15.50341 0.0364,0 0.0728,-0.002 0.10912,-0.002 0.0234,0 0.0467,0.002 0.0704,0.002 0.0224,0 0.0443,-0.003 0.0663,-0.003 0.0144,0 0.0285,0.003 0.0429,0.003 0.0804,0 0.16032,-0.009 0.24068,-0.012 6.608659,-0.126 13.172369,-2.6034 18.064039,-7.74401 10.197779,-10.71577 11.508269,-25.267499 6.02161,-38.4727524 -1.29158,-3.1094276 -2.77132,-6.2758826 -4.45257,-9.2586786 z m -12.05004,49.230421 c -0.41751,0.4583 -0.87581,0.86274 -1.35647,1.2342 0.95823,-2.50144 0.84594,-5.33518 -0.15553,-7.97914 -0.33132,-0.87412 -0.71073,-1.76533 -1.14161,-2.60374 -0.0906,-0.17613 -0.18401,-0.26128 -0.26845,-0.26128 -0.1016,0 -0.18984,0.12256 -0.24413,0.3567 -0.17887,0.76732 -0.52593,1.72518 -1.06053,1.72518 -0.0539,0 -0.10983,-0.01 -0.16748,-0.0305 -1.24286,-0.44529 -0.89058,-2.58111 -0.94317,-3.62897 -0.13459,-2.6865 -0.959919,-5.72112 -2.758239,-7.69381 -0.10779,-0.11847 -0.19878,-0.17409 -0.27022,-0.17409 -0.11946,0 -0.18507,0.15483 -0.1864,0.43193 -0.005,1.08042 -0.40444,3.33773 -2.74761,7.20148 -2.25846,3.72438 -4.51136,8.54395 -2.90218,13.05935 -1.91644,-1.21747 -3.4504,-2.99307 -4.34204,-5.16769 -3.38311,-8.25279 1.6229,-17.68352 5.68241,-24.059392 2.66627,-4.187529 4.23728,-7.564431 5.13201,-10.239607 1.24454,2.683051 2.02875,5.927484 2.208609,9.344602 0.0162,0.30656 0.006,0.757332 -0.005,1.234545 -0.056,2.501085 -0.160689,7.156902 3.8871,8.538112 0.41132,0.14007 0.83497,0.21115 1.2593,0.21115 0.83427,0 1.81177,-0.25164 2.71951,-1.10932 0.1236,0.29595 0.24615,0.5971 0.36801,0.90296 2.72737,6.85785 1.71492,13.85135 -2.70811,18.70734 z"
       id="path2"
       style="fill:#388e3c;fill-opacity:1;stroke-width:0.70312744"
       inkscape:connector-curvature="0" /></g></svg>