<?xml version="1.0" encoding="UTF-8" standalone="no"?>
<svg
   xmlns:dc="http://purl.org/dc/elements/1.1/"
   xmlns:cc="http://creativecommons.org/ns#"
   xmlns:rdf="http://www.w3.org/1999/02/22-rdf-syntax-ns#"
   xmlns:svg="http://www.w3.org/2000/svg"
   xmlns="http://www.w3.org/2000/svg"
   xmlns:sodipodi="http://sodipodi.sourceforge.net/DTD/sodipodi-0.dtd"
   xmlns:inkscape="http://www.inkscape.org/namespaces/inkscape"
   version="1.1"
   x="0px"
   y="0px"
   viewBox="0 0 130 130"
   xml:space="preserve"
   id="svg8"
   sodipodi:docname="fireplace_on.svg"
   width="130"
   height="130"
   inkscape:version="0.92.3 (2405546, 2018-03-11)"><metadata
     id="metadata14"><rdf:RDF><cc:Work
         rdf:about=""><dc:format>image/svg+xml</dc:format><dc:type
           rdf:resource="http://purl.org/dc/dcmitype/StillImage" /><dc:title></dc:title></cc:Work></rdf:RDF></metadata><defs
     id="defs12" /><sodipodi:namedview
     pagecolor="#ffffff"
     bordercolor="#666666"
     borderopacity="1"
     objecttolerance="10"
     gridtolerance="10"
     guidetolerance="10"
     inkscape:pageopacity="0"
     inkscape:pageshadow="2"
     inkscape:window-width="1920"
     inkscape:window-height="1017"
     id="namedview10"
     showgrid="false"
     inkscape:zoom="5.7558492"
     inkscape:cx="57.776531"
     inkscape:cy="63.022975"
     inkscape:window-x="-8"
     inkscape:window-y="317"
     inkscape:window-maximized="1"
     inkscape:current-layer="layer2" /><g
     inkscape:groupmode="layer"
     id="layer1"
     inkscape:label="Background"
     style="display:inline"
     transform="translate(0,58.455002)"><circle
       style="display:inline;fill:#e1e2e1;fill-opacity:1;stroke:#f5f5f6;stroke-width:7.18289375;stroke-linecap:butt;stroke-linejoin:round;stroke-miterlimit:4;stroke-dasharray:none;stroke-dashoffset:0;stroke-opacity:1"
       id="path998"
       cx="65"
       cy="6.5449972"
       r="61.408554" /></g><g
     inkscape:groupmode="layer"
     id="layer2"
     inkscape:label="Icon"
     style="display:inline"
     transform="translate(0,58.455002)"><path
       d="M 84.773472,-3.9424632 C 84.420853,-4.5683842 84.056212,-4.8708 83.72666,-4.8708 c -0.395508,0 -0.740183,0.4349548 -0.952737,1.2682288 -0.696586,2.728053 -2.049959,6.133429 -4.134303,6.133429 -0.210447,0 -0.428124,-0.03502 -0.653698,-0.108493 -4.846993,-1.583367 -3.474067,-9.1766948 -3.67903,-12.9033998 -0.526641,-9.550615 -3.743227,-20.339858 -10.756959,-27.355286 -0.420619,-0.420892 -0.775274,-0.618681 -1.054688,-0.618681 -0.465548,0 -0.721696,0.549984 -0.726125,1.534641 -0.01751,3.841804 -1.578587,11.868679 -10.716819,25.607462 -8.975533,13.4942338 -17.967447,31.037061 -10.979791,47.354487 4.273313,9.97903 14.407171,15.50341 24.538641,15.50341 0.03636,0 0.07277,-0.002 0.109123,-0.002 0.02335,0 0.04669,0.002 0.07038,0.002 0.02236,0 0.0443,-0.003 0.0663,-0.003 0.01441,0 0.02848,0.003 0.04289,0.003 0.08037,0 0.160313,-0.009 0.24068,-0.012 6.608603,-0.126 13.172274,-2.6034 18.06391,-7.74401 10.197705,-10.71577 11.50819,-25.267499 6.021565,-38.4727522 -1.29157,-3.109428 -2.771296,-6.275883 -4.452537,-9.258679 z M 72.723525,45.287958 c -0.417513,0.4583 -0.875811,0.86274 -1.356468,1.2342 0.958219,-2.50144 0.845931,-5.33518 -0.155531,-7.97914 -0.331312,-0.87412 -0.710721,-1.76533 -1.141596,-2.60374 -0.09062,-0.17613 -0.184005,-0.26128 -0.268452,-0.26128 -0.101602,0 -0.189841,0.12256 -0.244124,0.3567 -0.178876,0.76732 -0.525938,1.72518 -1.060524,1.72518 -0.05385,0 -0.109826,-0.01 -0.167482,-0.0305 -1.242845,-0.44529 -0.89058,-2.58111 -0.943167,-3.62897 -0.134588,-2.6865 -0.959914,-5.72112 -2.758225,-7.69381 -0.10779,-0.11847 -0.198774,-0.17409 -0.270212,-0.17409 -0.119452,0 -0.185061,0.15483 -0.186397,0.43193 -0.0045,1.08042 -0.40444,3.33773 -2.747601,7.20148 -2.258439,3.72438 -4.511312,8.54395 -2.90215,13.05935 -1.916428,-1.21747 -3.450375,-2.99307 -4.342009,-5.16769 -3.383083,-8.25279 1.622884,-17.68352 5.682375,-24.059392 2.66625,-4.187529 4.237244,-7.564431 5.13197,-10.2396072 1.244532,2.6830512 2.028735,5.9274842 2.208587,9.3446022 0.01617,0.30656 0.0062,0.757332 -0.0048,1.234545 -0.05598,2.501085 -0.160675,7.156902 3.887079,8.538112 0.411327,0.14007 0.834961,0.21115 1.259297,0.21115 0.834258,0 1.811752,-0.25164 2.719486,-1.10932 0.123597,0.29595 0.246152,0.5971 0.368005,0.90296 2.72735,6.85785 1.714918,13.85135 -2.708087,18.70734 z"
       id="path2-8"
       style="fill:#d32f2f;fill-opacity:1;stroke-width:0.703125"
       inkscape:connector-curvature="0" /></g></svg>