<?xml version="1.0" encoding="UTF-8" standalone="no"?>
<svg
   xmlns:dc="http://purl.org/dc/elements/1.1/"
   xmlns:cc="http://creativecommons.org/ns#"
   xmlns:rdf="http://www.w3.org/1999/02/22-rdf-syntax-ns#"
   xmlns:svg="http://www.w3.org/2000/svg"
   xmlns="http://www.w3.org/2000/svg"
   xmlns:sodipodi="http://sodipodi.sourceforge.net/DTD/sodipodi-0.dtd"
   xmlns:inkscape="http://www.inkscape.org/namespaces/inkscape"
   version="1.1"
   x="0px"
   y="0px"
   viewBox="0 0 130 130"
   xml:space="preserve"
   id="svg8"
   sodipodi:docname="tv_on.svg"
   width="130"
   height="130"
   inkscape:version="0.92.3 (2405546, 2018-03-11)"><metadata
     id="metadata14"><rdf:RDF><cc:Work
         rdf:about=""><dc:format>image/svg+xml</dc:format><dc:type
           rdf:resource="http://purl.org/dc/dcmitype/StillImage" /><dc:title></dc:title></cc:Work></rdf:RDF></metadata><defs
     id="defs12" /><sodipodi:namedview
     pagecolor="#ffffff"
     bordercolor="#666666"
     borderopacity="1"
     objecttolerance="10"
     gridtolerance="10"
     guidetolerance="10"
     inkscape:pageopacity="0"
     inkscape:pageshadow="2"
     inkscape:window-width="1920"
     inkscape:window-height="1017"
     id="namedview10"
     showgrid="false"
     inkscape:zoom="5.7558492"
     inkscape:cx="57.776531"
     inkscape:cy="63.022975"
     inkscape:window-x="-8"
     inkscape:window-y="317"
     inkscape:window-maximized="1"
     inkscape:current-layer="layer2" /><g
     inkscape:groupmode="layer"
     id="layer1"
     inkscape:label="Background"
     style="display:inline"
     transform="translate(0,58.455002)"><circle
       style="display:inline;fill:#e1e2e1;fill-opacity:1;stroke:#f5f5f6;stroke-width:7.18289375;stroke-linecap:butt;stroke-linejoin:round;stroke-miterlimit:4;stroke-dasharray:none;stroke-dashoffset:0;stroke-opacity:1"
       id="path998"
       cx="65"
       cy="6.5449972"
       r="61.408554" /></g><g
     inkscape:groupmode="layer"
     id="layer2"
     inkscape:label="Icon"
     style="display:inline"
     transform="translate(0,58.455002)"><path
       class="st0"
       d="m 110,26.044998 v -48 c 0,-1.4 -1.04211,-2.5 -2.36843,-2.5 H 22.368421 c -1.326316,0 -2.368421,1.1 -2.368421,2.5 v 48 c 0,1.4 1.042105,2.5 2.368421,2.5 h 35.526316 v 4 H 33.736842 c -1.326316,0 -2.368421,1.1 -2.368421,2.5 v 0 c 0,1.4 1.042105,2.5 2.368421,2.5 h 63.473682 c 1.32632,0 2.36842,-1.1 2.36842,-2.5 v 0 c 0,-1.4 -1.0421,-2.5 -2.36842,-2.5 H 73.052632 v -4 h 34.578938 c 1.32632,0 2.36843,-1.1 2.36843,-2.5 z m -84.126316,-45.5 h 78.157886 c 0.66316,0 1.13685,0.6 1.13685,1.2 v 40.5 c 0,0.7 -0.56842,1.2 -1.13685,1.2 H 25.873684 c -0.568421,0.1 -1.136842,-0.5 -1.136842,-1.1 v -40.6 c 0,-0.6 0.568421,-1.2 1.136842,-1.2 z m 41.494737,52 h -3.789474 v -4 h 3.789474 z"
       id="path4"
       inkscape:connector-curvature="0"
       style="fill:#d32f2f;fill-opacity:1;stroke-width:0.97332853" /></g></svg>