<?xml version="1.0" encoding="UTF-8" standalone="no"?>
<!-- Created with Inkscape (http://www.inkscape.org/) -->

<svg
   xmlns:dc="http://purl.org/dc/elements/1.1/"
   xmlns:cc="http://creativecommons.org/ns#"
   xmlns:rdf="http://www.w3.org/1999/02/22-rdf-syntax-ns#"
   xmlns:svg="http://www.w3.org/2000/svg"
   xmlns="http://www.w3.org/2000/svg"
   xmlns:sodipodi="http://sodipodi.sourceforge.net/DTD/sodipodi-0.dtd"
   xmlns:inkscape="http://www.inkscape.org/namespaces/inkscape"
   width="27.889923mm"
   height="27.957462mm"
   viewBox="0 0 27.889924 27.957461"
   version="1.1"
   id="svg1373"
   inkscape:version="0.92.3 (2405546, 2018-03-11)"
   sodipodi:docname="goodnight.svg">
  <defs
     id="defs1367" />
  <sodipodi:namedview
     id="base"
     pagecolor="#ffffff"
     bordercolor="#666666"
     borderopacity="1.0"
     inkscape:pageopacity="0.0"
     inkscape:pageshadow="2"
     inkscape:zoom="1"
     inkscape:cx="-230.85767"
     inkscape:cy="39.715217"
     inkscape:document-units="px"
     inkscape:current-layer="layer1"
     showgrid="false"
     inkscape:window-width="1920"
     inkscape:window-height="1017"
     inkscape:window-x="-8"
     inkscape:window-y="317"
     inkscape:window-maximized="1" />
  <metadata
     id="metadata1370">
    <rdf:RDF>
      <cc:Work
         rdf:about="">
        <dc:format>image/svg+xml</dc:format>
        <dc:type
           rdf:resource="http://purl.org/dc/dcmitype/StillImage" />
        <dc:title></dc:title>
      </cc:Work>
    </rdf:RDF>
  </metadata>
  <g
     inkscape:label="Layer 1"
     inkscape:groupmode="layer"
     id="layer1"
     transform="translate(-166.61801,-206.64757)">
    <g
       style="display:inline"
       transform="matrix(2.5339111,0,0,2.5339111,-142.50805,-75.944751)"
       id="goodnight"
       inkscape:label="goodnight">
      <path
         style="fill:#72b8d4;fill-opacity:1;stroke-width:0.26458332"
         id="path4"
         d="m 132.39374,117.84791 c -3.0427,0 -6.40291,-2.40771 -4.86833,-6.32355 v 0 c -3.28083,-0.0264 -5.52979,2.64584 -5.52979,5.50334 0,3.04271 2.46062,5.52979 5.52979,5.52979 2.77813,0 5.08,-2.01083 5.47688,-4.68313 0,-0.0265 -0.39688,-0.0265 -0.60855,-0.0265 z m -4.78895,3.88937 c -2.61938,0 -4.73604,-2.11667 -4.73604,-4.73604 0,-2.16958 1.53458,-3.99521 3.51895,-4.57729 v 0.0265 c -0.47625,3.30729 1.87854,6.08541 5.47688,6.40291 v 0 c -0.92604,1.79917 -2.19604,2.80459 -4.25979,2.88396 z"
         class="st0"
         inkscape:connector-curvature="0" />
      <g
         transform="matrix(0.26458333,0,0,0.26458333,110.86604,110.76717)"
         id="g861">
        <path
           style="stroke-width:0.60722613"
           inkscape:connector-curvature="0"
           d="m 73.768691,17.590951 h -4.00162 l 4.426678,-4.396318 a 0.60722612,0.60722612 0 0 0 0.13359,-0.680093 0.60722612,0.60722612 0 0 0 -0.558648,-0.388624 h -5.465035 a 0.60722625,0.60722625 0 0 0 0,1.214452 h 4.00162 l -4.43275,4.463112 a 0.60722612,0.60722612 0 0 0 -0.13359,0.643659 0.60722612,0.60722612 0 0 0 0.56472,0.358264 h 5.465035 a 0.60722612,0.60722612 0 0 0 0,-1.214452 z"
           id="path838" />
        <path
           style="stroke-width:0.60722613"
           inkscape:connector-curvature="0"
           d="M 75.59037,9.6970114 H 74.734181 L 76.033645,8.3186081 A 0.60722612,0.60722612 0 0 0 76.142945,7.6445872 0.60722612,0.60722612 0 0 0 75.59037,7.268107 h -2.428905 a 0.60722612,0.60722612 0 0 0 0,1.2144522 h 1.044429 L 72.90643,9.9277571 a 0.60722612,0.60722612 0 0 0 -0.109301,0.6375869 0.60722612,0.60722612 0 0 0 0.558648,0.346119 h 2.234593 a 0.60722612,0.60722612 0 0 0 0,-1.2144516 z"
           id="path840" />
        <path
           style="stroke-width:0.60722613"
           inkscape:connector-curvature="0"
           d="M 79.233726,7.268107 H 78.875463 L 79.658785,6.5151466 A 0.60722612,0.60722612 0 0 0 79.792374,5.8350533 0.60722612,0.60722612 0 0 0 79.233726,5.4464286 h -1.821678 a 0.60722612,0.60722612 0 0 0 0,1.2144522 h 0.358263 l -0.789394,0.8197553 a 0.60722612,0.60722612 0 0 0 -0.133589,0.6436597 0.60722612,0.60722612 0 0 0 0.56472,0.3582634 h 1.821678 a 0.60722612,0.60722612 0 0 0 0,-1.2144522 z"
           id="path842" />
      </g>
    </g>
  </g>
</svg>
